<?xml version="1.0" standalone="no"?>
<!DOCTYPE svg PUBLIC "-//W3C//DTD SVG 20010904//EN"
 "http://www.w3.org/TR/2001/REC-SVG-20010904/DTD/svg10.dtd">
<svg version="1.0" xmlns="http://www.w3.org/2000/svg"
 width="512.000000pt" height="512.000000pt" viewBox="0 0 512.000000 512.000000"
 preserveAspectRatio="xMidYMid meet">
<metadata>
Created by potrace 1.11, written by Peter Selinger 2001-2013
</metadata>
<g transform="translate(0.000000,512.000000) scale(0.100000,-0.100000)"
fill="#000000" stroke="none">
<path d="M1580 3364 c-137 -40 -251 -112 -371 -235 -121 -125 -176 -272 -146
-394 27 -106 164 -245 334 -337 130 -70 273 -177 383 -285 l120 -118 -23 -45
c-65 -129 -156 -223 -266 -278 -70 -35 -81 -37 -165 -36 -50 0 -104 3 -121 6
-125 24 -285 82 -420 154 -46 24 -86 44 -88 44 -8 0 -141 -200 -136 -204 28
-26 246 -117 369 -154 301 -92 601 -9 846 233 129 126 188 233 197 357 11 129
-55 196 -435 442 -212 138 -301 209 -341 270 -46 68 -57 91 -57 113 0 29 134
226 184 270 133 117 342 89 738 -101 52 -25 98 -46 101 -46 7 0 67 84 101 143
l28 47 -103 49 c-193 91 -320 122 -514 127 -114 2 -140 0 -215 -22z"/>
<path d="M4345 2906 c-64 -31 -135 -82 -201 -146 -74 -72 -79 -119 -27 -250
45 -111 45 -121 7 -195 -63 -122 -228 -333 -375 -477 -124 -122 -134 -127
-153 -90 -17 33 -65 179 -72 219 -2 15 -7 35 -10 43 -3 8 -7 56 -10 107 -7
106 5 141 74 215 53 57 139 174 162 219 25 49 34 103 21 127 -12 23 -36 22
-130 -3 -165 -43 -215 -74 -256 -160 -35 -76 -74 -226 -81 -315 -11 -156 -14
-167 -46 -210 -11 -13 -113 -95 -226 -182 l-207 -157 -65 64 -65 65 3 65 c3
55 14 143 37 275 18 110 91 332 155 476 17 36 30 68 30 71 0 6 -44 -2 -162
-29 l-88 -20 -21 -46 c-43 -97 -105 -296 -126 -402 -70 -361 -56 -497 65 -631
53 -60 100 -89 144 -91 117 -4 407 233 561 461 40 57 42 56 51 -24 18 -160 80
-352 134 -414 18 -20 28 -23 62 -18 131 17 471 407 652 747 83 155 177 393
227 574 30 105 32 124 15 141 -20 19 -20 19 -79 -9z"/>
</g>
</svg>
